<?xml version="1.0" standalone="no"?>
<!DOCTYPE svg PUBLIC "-//W3C//DTD SVG 1.1//EN" "http://www.w3.org/Graphics/SVG/1.1/DTD/svg11.dtd" >
<svg>
<metadata>
Created by FontForge 20090914 at Fri Sep 27 10:54:20 2013
 By www-data
&#194;&#169; 2009, 2010, 2011, 2012 GrandChaos9000. Some Rights Reserved.
</metadata>
<defs>
<font id="DynoRegular" horiz-adv-x="1000" >
  <font-face 
    font-family="Dyno"
    font-weight="400"
    font-stretch="normal"
    units-per-em="2048"
    panose-1="2 11 6 3 6 1 1 1 1 1"
    ascent="1638"
    descent="-410"
    x-height="1100"
    cap-height="1400"
    bbox="-154 -450 2100 1900"
    underline-thickness="150"
    underline-position="-142"
    unicode-range="U+0020-U+2122"
  />
<missing-glyph 
d="M100 1400h800v-1400h-800v1400zM300 1200v-1000h400v1000h-400z" />
    <glyph glyph-name=".notdef" 
d="M100 1400h800v-1400h-800v1400zM300 1200v-1000h400v1000h-400z" />
    <glyph glyph-name="space" unicode=" " horiz-adv-x="600" 
 />
    <glyph glyph-name="exclam" unicode="!" horiz-adv-x="450" 
d="M115 1391h220l-20 -1000h-190zM100 244h250v-250h-250v250z" />
    <glyph glyph-name="quotedbl" unicode="&#x22;" horiz-adv-x="700" 
d="M300 1450c0 -167.333 -10 -317.333 -30 -450h-140c-20 132.667 -30 282.667 -30 450h200zM600 1450c0 -167.333 -10 -317.333 -30 -450h-140c-20 132.667 -30 282.667 -30 450h200z" />
    <glyph glyph-name="numbersign" unicode="#" horiz-adv-x="1400" 
d="M200 1100h236l64 300h199l-64 -300h301l64 300h199l-64 -300h165v-200h-208l-86 -400h194v-200h-236l-64 -300h-200l64 300h-300l-64 -300h-200l64 300h-164v200h207l86 400h-193v200zM592 900l-86 -400h301l86 400h-301z" />
    <glyph glyph-name="dollar" unicode="$" horiz-adv-x="1077" 
d="M470 1600l150 -0.00390625v-200c119.333 -1.33301 222 -21.666 308 -60.999l-46 -185c-40 14.667 -81.5 25.834 -124.5 33.501s-88.833 11.834 -137.5 12.501v-410c238 -45.333 357 -175.333 357 -390c0 -232.667 -119 -364 -357 -394v-206h-150v200
c-150 3.33301 -273.333 25.333 -370 66l52 192c86 -29.333 192 -48 318 -56v412c-228.667 48.667 -343 177.334 -343 386.001c0 225.333 114.333 355.333 343 390v210zM620 210.996c104.667 24 157 86.999 157 188.999c0 84.667 -52.333 145.334 -157 182.001v-371z
M470 1184c-95.333 -27.333 -143 -88.668 -143 -184.001c0 -79.333 47.667 -137.666 143 -174.999v359z" />
    <glyph glyph-name="percent" unicode="%" horiz-adv-x="1500" 
d="M1000 1400h200l-700 -1400h-200zM100 1100c0 40.667 8 79.334 24 116.001s37.5 68.5 64.5 95.5s58.667 48.5 95 64.5s75.166 24 116.499 24c40.667 0 79.334 -8 116.001 -24s68.5 -37.5 95.5 -64.5s48.5 -58.833 64.5 -95.5s24 -75.334 24 -116.001
c0 -41.333 -8 -80.166 -24 -116.499s-37.5 -68 -64.5 -95s-58.833 -48.5 -95.5 -64.5s-75.334 -24 -116.001 -24c-41.333 0 -80.166 8 -116.499 24s-68 37.5 -95 64.5s-48.5 58.667 -64.5 95s-24 75.166 -24 116.499zM400 1229c-18 0 -34.667 -3.5 -50 -10.5
s-28.833 -16.333 -40.5 -28s-20.834 -25.334 -27.501 -41.001s-10 -32.167 -10 -49.5c0 -18 3.33301 -34.667 10 -50s15.834 -28.833 27.501 -40.5s25.167 -20.834 40.5 -27.501s32 -10 50 -10c17.333 0 33.833 3.33301 49.5 10s29.334 15.834 41.001 27.501
s21 25.167 28 40.5s10.5 32 10.5 50c0 17.333 -3.5 33.833 -10.5 49.5s-16.333 29.334 -28 41.001s-25.334 21 -41.001 28s-32.167 10.5 -49.5 10.5zM800 300c0 40.667 8 79.334 24 116.001s37.5 68.5 64.5 95.5s58.667 48.5 95 64.5s75.166 24 116.499 24
c40.667 0 79.334 -8 116.001 -24s68.5 -37.5 95.5 -64.5s48.5 -58.833 64.5 -95.5s24 -75.334 24 -116.001c0 -41.333 -8 -80.166 -24 -116.499s-37.5 -68 -64.5 -95s-58.833 -48.5 -95.5 -64.5s-75.334 -24 -116.001 -24c-41.333 0 -80.166 8 -116.499 24
s-68 37.5 -95 64.5s-48.5 58.667 -64.5 95s-24 75.166 -24 116.499zM1100 429c-18 0 -34.667 -3.5 -50 -10.5s-28.833 -16.333 -40.5 -28s-20.834 -25.334 -27.501 -41.001s-10 -32.167 -10 -49.5c0 -18 3.33301 -34.667 10 -50s15.834 -28.833 27.501 -40.5
s25.167 -20.834 40.5 -27.501s32 -10 50 -10c17.333 0 33.833 3.33301 49.5 10s29.334 15.834 41.001 27.501s21 25.167 28 40.5s10.5 32 10.5 50c0 17.333 -3.5 33.833 -10.5 49.5s-16.333 29.334 -28 41.001s-25.334 21 -41.001 28s-32.167 10.5 -49.5 10.5z" />
    <glyph glyph-name="ampersand" unicode="&#x26;" horiz-adv-x="1250" 
d="M900 1160c-65.333 26.667 -165.333 40 -300 40c-200 0 -300 -66.667 -300 -200s100 -203.333 300 -210h200v160l200 50v-210h150v-180h-150v-510c-132.667 -66.667 -266 -100 -400 -100c-333.333 -0 -500 133.333 -500 400c0 132.667 66.667 232.667 200 300
c-133.333 67.333 -200 167.333 -200 300c0 266.667 166.667 400 500 400c131.333 0 248 -16.667 350 -50zM600 610c-200 -7.33301 -300 -77.333 -300 -210c0 -133.333 100 -200 300 -200c68 0 134.667 13.333 200 40v370h-200z" />
    <glyph glyph-name="quotesingle" unicode="'" horiz-adv-x="400" 
d="M300 1450c0 -167.333 -10 -317.333 -30 -450h-140c-20 132.667 -30 282.667 -30 450h200z" />
    <glyph glyph-name="parenleft" unicode="(" horiz-adv-x="670" 
d="M570 1550c-40 -36 -76.5 -82 -109.5 -138s-61.5 -120.167 -85.5 -192.5s-42.5 -152.333 -55.5 -240s-19.5 -180.834 -19.5 -279.501c0 -99.333 6.5 -192.666 19.5 -279.999s31.5 -167.166 55.5 -239.499s52.5 -136.5 85.5 -192.5s69.5 -102 109.5 -138l-120 -100
c-60 50 -112 109 -156 177s-80.333 142.833 -109 224.5s-50 168.667 -64 261s-21 188.166 -21 287.499c0 98.667 7 194.334 21 287.001s35.333 179.667 64 261s65 156.166 109 224.499s96 127.5 156 177.5z" />
    <glyph glyph-name="parenright" unicode=")" horiz-adv-x="670" 
d="M220 1650c60 -50 111.833 -108.997 155.5 -176.997s80 -142.833 109 -224.5s50.5 -168.834 64.5 -261.501s21 -188.334 21 -287.001c0 -99.333 -7 -195.333 -21 -288s-35.5 -179.667 -64.5 -261s-65.333 -156 -109 -224s-95.5 -127 -155.5 -177l-120 100
c40 36 76.5 82 109.5 138s61.5 120.167 85.5 192.5s42.5 152.166 55.5 239.499s19.5 180.666 19.5 279.999c0 98.667 -6.5 191.834 -19.5 279.501s-31.5 167.667 -55.5 240s-52.5 136.5 -85.5 192.5s-69.5 102 -109.5 138z" />
    <glyph glyph-name="asterisk" unicode="*" horiz-adv-x="840" 
d="M140 1410l190 -50v190h170v-190l200 50l40 -150l-180 -50l130 -180l-130 -80l-140 170l-140 -170l-130 80l130 180l-180 50z" />
    <glyph glyph-name="plus" unicode="+" 
d="M100 800h300v300h200v-300h300v-200h-300v-300h-200v300h-300v200z" />
    <glyph glyph-name="comma" unicode="," horiz-adv-x="400" 
d="M100 250l200 0.000976562v-250c0 -100.667 -50 -167.334 -150 -200.001l-50 80c66.667 46.667 100 86.667 100 120h-100v250z" />
    <glyph glyph-name="hyphen" unicode="-" horiz-adv-x="800" 
d="M100 800h600v-200h-600v200z" />
    <glyph glyph-name="period" unicode="." horiz-adv-x="400" 
d="M100 250h200v-250h-200v250z" />
    <glyph glyph-name="slash" unicode="/" horiz-adv-x="601" 
d="M446 1600h199l-499 -1800h-200z" />
    <glyph glyph-name="zero" unicode="0" horiz-adv-x="1200" 
d="M600 1200c-200 0 -300 -166.667 -300 -500s100 -500 300 -500s300 166.667 300 500s-100 500 -300 500zM100 700c0 466.667 166.667 700 500 700s500 -233.333 500 -700s-166.667 -700 -500 -700s-500 233.333 -500 700z" />
    <glyph glyph-name="one" unicode="1" horiz-adv-x="600" 
d="M200 1350l200 50v-1400h-200v1350z" />
    <glyph glyph-name="two" unicode="2" horiz-adv-x="1001" 
d="M100 1339c107.333 40.667 231 60.999 371 60.999c286.667 0 430 -133.333 430 -400c0 -167.333 -100 -307.333 -300 -420c-200 -113.333 -300 -240 -300 -380h600v-200h-800v200c0 212.667 100 372.667 300 480c200 106.667 300 213.334 300 320.001
c0 133.333 -76.667 200 -230 200c-117.333 0 -222.333 -15.333 -315 -46z" />
    <glyph glyph-name="three" unicode="3" horiz-adv-x="1050" 
d="M100 1350c102 33.333 218.667 50 350 50c333.333 0 500 -133.333 500 -400c0 -132.667 -66.667 -232.667 -200 -300c133.333 -67.333 200 -167.333 200 -300c0 -266.667 -166.667 -400 -500 -400c-131.333 0 -248 16.667 -350 50l50 190
c65.333 -26.667 165.333 -40 300 -40c200 0 300 66.667 300 200c0 132.667 -100 202.667 -300 210h-120v180h120c200 6.66699 300 76.667 300 210s-100 200 -300 200c-134.667 0 -234.667 -13.333 -300 -40z" />
    <glyph glyph-name="four" unicode="4" horiz-adv-x="1150" 
d="M670 1400h230v-800h150v-200h-150v-400h-200v400h-600v200zM700 1100l-350 -500h350v500z" />
    <glyph glyph-name="five" unicode="5" horiz-adv-x="1070" 
d="M100 1400h819.999v-200h-590l-10 -400c66.667 66.667 150 100 250 100c266.667 0 400 -146.667 400 -440c0 -306.667 -166.667 -460 -500 -460c-137.333 0 -260.666 16.667 -369.999 50l70 200c68.667 -33.333 168.667 -50 300 -50c200 0 300 86.667 300 260
c0 160 -66.667 240 -200 240c-100 0 -200 -50 -300 -150l-170 50v800z" />
    <glyph glyph-name="six" unicode="6" horiz-adv-x="1100" 
d="M100 800c0 400 166.666 600 499.999 600c98 0 198 -16.667 300 -50l-50 -190c-65.333 26.667 -148.666 40 -249.999 40c-200 0 -300 -133.333 -300 -400c66.667 66.667 166.667 100 300 100c266.667 0 400 -150 400 -450s-150 -450 -450 -450s-450 166.667 -450 500v300z
M299.999 500c0 -200 83.333 -300 250 -300s250 83.333 250 250s-66.667 250 -200 250s-233.333 -33.333 -300 -100v-100z" />
    <glyph glyph-name="seven" unicode="7" horiz-adv-x="1040" 
d="M100 1400h840v-200l-440 -1200h-230l440 1200h-610v200z" />
    <glyph glyph-name="eight" unicode="8" horiz-adv-x="1100" 
d="M550 600c-166.667 0 -250 -66.667 -250 -200s83.333 -200 250 -200s250 66.667 250 200s-83.333 200 -250 200zM550 1200c-153.333 0 -230 -66.667 -230 -200s76.667 -200 230 -200s230 66.667 230 200s-76.667 200 -230 200zM100 400c0 146.667 66.667 246.667 200 300
c-120 52.667 -180 152.667 -180 300c0 266.667 143.333 400 430 400s430 -133.333 430 -400c0 -147.333 -60 -247.333 -180 -300c133.333 -53.333 200 -153.333 200 -300c0 -266.667 -150 -400 -450 -400s-450 133.333 -450 400z" />
    <glyph glyph-name="nine" unicode="9" horiz-adv-x="1100" 
d="M250 240c65.333 -26.667 148.667 -40 250 -40c200 0 300 133.333 300 400c-66.667 -66.667 -166.667 -100 -300 -100c-266.667 0 -400 150 -400 450s150 450 450 450s450 -166.667 450 -500v-300c0 -400 -166.667 -600 -500 -600c-98 0 -198 16.667 -300 50zM800.001 900
c0 200 -83.333 300 -250 300s-250 -83.333 -250 -250s66.667 -250 200 -250s233.333 33.333 300 100v100z" />
    <glyph glyph-name="colon" unicode=":" horiz-adv-x="400" 
d="M100 250h200v-250h-200v250zM100 1078h200v-250h-200v250z" />
    <glyph glyph-name="semicolon" unicode=";" horiz-adv-x="400" 
d="M100 250l200 0.000976562v-250c0 -100.667 -50 -167.334 -150 -200.001l-50 80c66.667 46.667 100 86.667 100 120h-100v250zM100 1078h200v-250h-200v250z" />
    <glyph glyph-name="less" unicode="&#x3c;" 
d="M100 820l800 380v-220l-550 -280l550 -280v-220l-800 380v240z" />
    <glyph glyph-name="equal" unicode="=" 
d="M100 1000h800v-200h-800v200zM100 600h800v-200h-800v200z" />
    <glyph glyph-name="greater" unicode="&#x3e;" 
d="M100 1200l800 -380v-240l-800 -380v220l550 280l-550 280v220z" />
    <glyph glyph-name="question" unicode="?" horiz-adv-x="950" 
d="M100 1350c102 33.333 201.999 50 299.999 50c300 0 450 -133.333 450 -400c0 -200 -100 -333.333 -300 -400l-20 -200h-160l-20 350c200 32.667 300 116 300 250c0 133.333 -83.333 200 -250 200c-101.333 0 -184.666 -13.333 -249.999 -40zM319.999 244h250v-250h-250
v250z" />
    <glyph glyph-name="at" unicode="@" horiz-adv-x="1900" 
d="M500 650c0 300 133.331 450 399.998 450c200 0 333.333 -33.333 400 -100v-712c2.66699 -72 36 -108 100 -108c133.333 0 200 140 200 420c0 466.667 -216.667 700 -650 700s-650 -250 -650 -750s233.333 -750 700 -750c100 0 191.333 4.16699 274 12.5
s158 20.833 226 37.5l50 -170c-101.333 -53.333 -284.666 -80 -549.999 -80c-600 0 -900 316.667 -900 950s283.333 950 850 950s850 -300 850 -900c0 -400 -133.333 -600 -400 -600c-104.667 0 -182 27 -232 81c-89.333 -54 -178.666 -81 -267.999 -81
c-266.667 0 -400 150 -400 450v200zM1100 880c-34 6.66699 -67.333 11.667 -100 15s-66 5 -100 5c-133.333 0 -200 -83.333 -200 -250v-200c0 -166.667 66.667 -250 200 -250c34 0 67.333 1.66699 100 5s66 8.33301 100 15v660z" />
    <glyph glyph-name="A" unicode="A" horiz-adv-x="1100" 
d="M430 1400h240l430 -1400h-220l-86 300h-488l-86 -300h-220zM550 1150l-187 -650h373z" />
    <glyph glyph-name="B" unicode="B" horiz-adv-x="1150" 
d="M100 1400h530c266.667 0 400 -133.333 400 -400c0 -133.333 -60 -233.333 -180 -300c133.333 -67.333 200 -167.333 200 -300c0 -266.667 -133.333 -400 -400 -400h-550v1400zM300 1200v-400h330c133.333 0 200 66 200 198c0 134.667 -66.667 202 -200 202h-330zM300 600
v-400h350c133.333 0 200 66 200 198c0 134.667 -66.667 202 -200 202h-350z" />
    <glyph glyph-name="C" unicode="C" horiz-adv-x="1100" 
d="M985 1153c-86.667 31.333 -198.331 47 -334.998 47c-233.333 0 -350 -166.667 -350 -500s116.667 -500 350 -500c137.333 0 249.333 15.667 336 47l62 -176c-116.667 -47.333 -249.334 -71 -398.001 -71c-366.667 -0 -550 233.333 -550 700s183.333 700 550 700
c151.333 0 284.666 -24 399.999 -72z" />
    <glyph glyph-name="D" unicode="D" horiz-adv-x="1200" 
d="M300 1200v-1000h250c233.333 0 350 166.667 350 500s-116.667 500 -350 500h-250zM100 1400h450c366.667 0 550 -233.333 550 -700s-183.333 -700 -550 -700h-450v1400z" />
    <glyph glyph-name="E" unicode="E" 
d="M100 1400h800v-200h-600v-400h550v-200h-550v-400h600v-200h-800v1400z" />
    <glyph glyph-name="F" unicode="F" 
d="M100 1400h800v-200h-600v-400h550v-200h-550v-600h-200v1400z" />
    <glyph glyph-name="G" unicode="G" horiz-adv-x="1200" 
d="M985 1153c-86.667 31.333 -198.334 47 -335.001 47c-233.333 0 -350 -166.667 -350 -500s116.667 -500 350 -500c48.667 0 93.834 1.83301 135.501 5.5s79.834 9.16699 114.501 16.5v328h-250v200h450v-670l-10 3l8 -12c-116.667 -47.333 -266 -71 -448 -71
c-366.667 -0 -550 233.333 -550 700s183.333 700 550 700c151.333 0 284.666 -24 399.999 -72z" />
    <glyph glyph-name="H" unicode="H" horiz-adv-x="1150" 
d="M100 1400h200v-600h550v600h200v-1400h-200v600h-550v-600h-200v1400z" />
    <glyph glyph-name="I" unicode="I" horiz-adv-x="400" 
d="M100 1400h200v-1400h-200v1400z" />
    <glyph glyph-name="J" unicode="J" horiz-adv-x="650" 
d="M350 1400h200v-1000c0 -266.667 -133.333 -400 -400 -400h-50v200h50c133.333 0 200 66.667 200 200v1000z" />
    <glyph glyph-name="K" unicode="K" horiz-adv-x="1049" 
d="M100 1400h200v-699l460 699h240l-460 -700l460 -700h-240l-460 700v-700h-200v1400z" />
    <glyph glyph-name="L" unicode="L" horiz-adv-x="954" 
d="M100 1400h200v-1200h600v-200h-800v1400z" />
    <glyph glyph-name="M" unicode="M" horiz-adv-x="1500" 
d="M100 1400h320l330 -1100l330 1100h320v-1400h-200v1100l-330 -1100h-240l-330 1100v-1100h-200v1400z" />
    <glyph glyph-name="N" unicode="N" horiz-adv-x="1150" 
d="M100 1400h200l550 -990v990h200v-1400h-200l-550 990v-990h-200v1400z" />
    <glyph glyph-name="O" unicode="O" horiz-adv-x="1300" 
d="M650 1200c-233.333 0 -350 -166.667 -350 -500s116.667 -500 350 -500s350 166.667 350 500s-116.667 500 -350 500zM100 700c0 466.667 183.333 700 550 700s550 -233.333 550 -700s-183.333 -700 -550 -700s-550 233.333 -550 700z" />
    <glyph glyph-name="P" unicode="P" horiz-adv-x="1150" 
d="M100 1400h450c333.333 0 500 -150 500 -450s-166.667 -450 -500 -450h-250v-500h-200v1400zM300 1200v-500h250c200 0 300 83.333 300 250s-100 250 -300 250h-250z" />
    <glyph glyph-name="Q" unicode="Q" horiz-adv-x="1300" 
d="M947 73c-78.667 -48.667 -177.667 -73 -297 -73c-366.667 -0 -550 233.333 -550 700s183.333 700 550 700s550 -233.333 550 -700c0 -212 -38 -376 -114 -492l105 -120l-135 -137zM663 394l145 137l134 -155c38.667 78 58 186 58 324c0 333.333 -116.667 500 -350 500
s-350 -166.667 -350 -500s116.667 -500 350 -500c57.333 0 109.333 10.667 156 32z" />
    <glyph glyph-name="R" unicode="R" horiz-adv-x="1150" 
d="M100 1400h450c333.333 0 500 -150 500 -450c0 -226.667 -96.667 -370 -290 -430l290 -520h-230l-270 500h-250v-500h-200v1400zM300 1200v-500h250c200 0 300 83.333 300 250s-100 250 -300 250h-250z" />
    <glyph glyph-name="S" unicode="S" horiz-adv-x="1077" 
d="M882 1154c-79.333 30.667 -170.999 45.998 -274.999 45.998c-186.667 0 -280 -66.667 -280 -200c0 -100 76.667 -166.667 230 -200c280 -33.333 420 -166.666 420 -399.999c0 -266.667 -156.667 -400 -470 -400c-166.667 0 -302.334 22 -407.001 66l52 192
c46 -15.333 98.333 -28 157 -38s124.667 -16.667 198 -20c180 0 270 66.667 270 200c0 100.667 -73.333 167.334 -220 200.001c-286.667 32.667 -430 166 -430 400c0 266.667 160 400 480 400c126.667 0 233.667 -20.333 321 -61z" />
    <glyph glyph-name="T" unicode="T" horiz-adv-x="1100" 
d="M100 1400h900v-200h-350v-1200h-200v1200h-350v200z" />
    <glyph glyph-name="U" unicode="U" horiz-adv-x="1150" 
d="M100 1400h200v-900c0 -200 93.333 -300 280 -300c180 0 270 100 270 300v900h200v-900c0 -333.333 -156.667 -500 -470 -500c-320 0 -480 166.667 -480 500v900z" />
    <glyph glyph-name="V" unicode="V" horiz-adv-x="1100" 
d="M0 1400h220l330 -1150l330 1150h220l-430 -1400h-240z" />
    <glyph glyph-name="W" unicode="W" horiz-adv-x="1700" 
d="M0 1400h220l220 -1100l310 1100h200l310 -1100l220 1100h220l-310 -1400h-240l-300 1000l-300 -1000h-240z" />
    <glyph glyph-name="X" unicode="X" horiz-adv-x="1200" 
d="M100 1400h230l270 -570l270 570h230l-350 -700l350 -700h-230l-270 570l-270 -570h-230l350 700z" />
    <glyph glyph-name="Y" unicode="Y" 
d="M0 1400h230l270 -570l270 570h230l-400 -800v-600h-200v600z" />
    <glyph glyph-name="Z" unicode="Z" horiz-adv-x="1100" 
d="M130 1400h840v-200l-620 -1000h650v-200h-900v200l620 1000h-590v200z" />
    <glyph glyph-name="bracketleft" unicode="[" horiz-adv-x="650" 
d="M100 1600h450v-200h-250v-1400h250v-200h-450v1800z" />
    <glyph glyph-name="backslash" unicode="\" horiz-adv-x="601" 
d="M645 -200h-200l-499 1800h199z" />
    <glyph glyph-name="bracketright" unicode="]" horiz-adv-x="650" 
d="M100 1600h450v-1800h-450v200h250v1400h-250v200z" />
    <glyph glyph-name="asciicircum" unicode="^" 
d="M400 1550h200l300 -450h-200l-200 300l-200 -300h-200z" />
    <glyph glyph-name="underscore" unicode="_" horiz-adv-x="800" 
d="M0 -150h800v-150h-800v150z" />
    <glyph glyph-name="grave" unicode="`" horiz-adv-x="470" 
d="M100 1550h220l50 -300h-150z" />
    <glyph glyph-name="a" unicode="a" 
d="M175 1034c108 44 216.333 66 325 66c266.667 0 400 -133.333 400 -400v-600c-66.667 -66.667 -200 -100 -400 -100c-266.667 -0 -400 113.333 -400 340c0 240 200 360 600 360c0 133.333 -66.667 200 -200 200c-89.333 0 -178.333 -15 -267 -45zM700 500
c-266.667 0 -400 -53.333 -400 -160c0 -93.333 66.667 -140 200 -140c34 0 67.333 1.66699 100 5s66 8.33301 100 15v280z" />
    <glyph glyph-name="b" unicode="b" 
d="M100 1400l199.999 50v-380c66.667 20 133.334 30 200.001 30c266.667 0 400 -150 400 -450v-200c0 -300 -133.333 -450 -400 -450c-200 0 -333.333 16.667 -400 50v1350zM699.999 650c0 166.667 -66.667 250 -200 250c-34 0 -67.333 -1.66699 -100 -5
s-66 -8.33301 -100 -15v-660c34 -6.66699 67.333 -11.667 100 -15s66 -5 100 -5c133.333 0 200 83.333 200 250v200z" />
    <glyph glyph-name="c" unicode="c" horiz-adv-x="900" 
d="M100 600c0 333.333 150 500 450 500c131.333 0 231.333 -16.667 300 -50l-50 -190c-65.333 26.667 -148.666 40 -249.999 40c-166.667 0 -250 -100 -250 -300v-100c0 -200 83.333 -300 250 -300c101.333 0 184.666 13.333 249.999 40l50 -190
c-68.667 -33.333 -168.667 -50 -300 -50c-300 0 -450 166.667 -450 500v100z" />
    <glyph glyph-name="d" unicode="d" 
d="M700 1400l200 50v-1400c-66.667 -33.333 -200 -50 -400 -50c-266.667 0 -400 150 -400 450v200c0 300 133.333 450 400 450c66 0 132.667 -10 200 -30v330zM700 880c-34 6.66699 -67.333 11.667 -100 15s-66 5 -100 5c-133.333 0 -200 -83.333 -200 -250v-200
c0 -166.667 66.667 -250 200 -250c34 0 67.333 1.66699 100 5s66 8.33301 100 15v660z" />
    <glyph glyph-name="e" unicode="e" 
d="M100 600c0 333.333 143.333 500 430 500c273.333 0 410 -166.667 410 -500c0 -100 -16.667 -150 -50 -150h-590c0 -166.667 66.667 -250 200 -250c131.333 0 236.333 14.667 315 44l38 -185c-69.333 -39.333 -187 -59 -353 -59c-266.667 0 -400 166.667 -400 500v100z
M740 640c0 173.333 -70 260 -210 260c-153.333 0 -230 -86.667 -230 -260h440z" />
    <glyph glyph-name="f" unicode="f" horiz-adv-x="845" 
d="M100 1050h150.001c0 266.667 116.667 400 350 400c79.333 0 142.666 -16.667 189.999 -50l-50 -180c-47.333 20 -94 30 -140 30c-100 0 -150 -66.667 -150 -200h300v-200h-300v-850h-200v850h-150v200z" />
    <glyph glyph-name="g" unicode="g" 
d="M100 650c0 300 133.333 450 400 450c200 0 333.333 -16.667 400 -50v-1100c0 -266.667 -133.333 -400 -400 -400c-131.333 0 -248 16.667 -350 50l50 200c68.667 -33.333 168.667 -50 300 -50c133.333 0 200 66.667 200 200v80c-67.333 -20 -134 -30 -200 -30
c-266.667 0 -400 150 -400 450v200zM700 880c-34 6.66699 -67.333 11.667 -100 15s-66 5 -100 5c-133.333 0 -200 -83.333 -200 -250v-200c0 -166.667 66.667 -250 200 -250c34 0 67.333 1.66699 100 5s66 8.33301 100 15v660z" />
    <glyph glyph-name="h" unicode="h" 
d="M100 1395l199.999 50v-380c66.667 20 133.334 30 200.001 30c266.667 0 400 -150 400 -450v-645h-200v645c0 166.667 -66.667 250 -200 250c-34 0 -67.333 -1.66699 -100 -5s-66 -8.33301 -100 -15v-875h-200v1395z" />
    <glyph glyph-name="i" unicode="i" horiz-adv-x="400" 
d="M100 1100h200v-1100h-200v1100zM100 1500h200v-250h-200v250z" />
    <glyph glyph-name="j" unicode="j" horiz-adv-x="401" 
d="M101 1100h200v-1150c0 -266.667 -133.333 -400 -400 -400h-50v200h50c133.333 0 200 66.667 200 200v1150zM101 1500h200v-250h-200v250z" />
    <glyph glyph-name="k" unicode="k" horiz-adv-x="952" 
d="M100 1400l200 50v-899l360 549h240l-360 -550l360 -550h-240l-360 550v-550h-200v1400z" />
    <glyph glyph-name="l" unicode="l" horiz-adv-x="400" 
d="M100 1400l200 50v-1450h-200v1400z" />
    <glyph glyph-name="m" unicode="m" horiz-adv-x="1500" 
d="M100 1050c68.667 33.333 202.002 50 400.002 50c97.333 0 174.666 -23.667 231.999 -71c75.333 47.333 181.333 71 318 71c233.333 0 350 -133.333 350 -400v-700h-200v700c0 133.333 -50 200 -150 200c-64.667 0 -131.334 -16.667 -200.001 -50v-850h-200v700
c0 133.333 -50 200 -150 200c-34 0 -67.333 -1.66699 -100 -5s-66 -8.33301 -100 -15v-880h-200v1050z" />
    <glyph glyph-name="n" unicode="n" 
d="M100 1050c68.667 33.333 202 50 400 50c266.667 0 400 -133.333 400 -400v-700h-200v700c0 133.333 -66.667 200 -200 200c-34 0 -67.333 -1.66699 -100 -5s-66 -8.33301 -100 -15v-880h-200v1050z" />
    <glyph glyph-name="o" unicode="o" horiz-adv-x="1100" 
d="M100 600c0 333.333 150 500 450 500s450 -166.667 450 -500v-100c0 -333.333 -150 -500 -450 -500s-450 166.667 -450 500v100zM300 500c0 -200 83.333 -300 250 -300s250 100 250 300v100c0 200 -83.333 300 -250 300s-250 -100 -250 -300v-100z" />
    <glyph glyph-name="p" unicode="p" 
d="M100 1050c66.667 33.333 200.001 50 400.001 50c266.667 0 400 -150 400 -450v-200c0 -300 -133.333 -450 -400 -450c-66.667 0 -133.334 10 -200.001 30v-430l-200 -50v1500zM700.001 650c0 166.667 -66.667 250 -200 250c-34 0 -67.333 -1.66699 -100 -5
s-66 -8.33301 -100 -15v-660c34 -6.66699 67.333 -11.667 100 -15s66 -5 100 -5c133.333 0 200 83.333 200 250v200z" />
    <glyph glyph-name="q" unicode="q" 
d="M100 650c0 300 133.333 450 400 450c200 0 333.333 -16.667 400 -50v-1450l-200 -50v480c-67.333 -20 -134 -30 -200 -30c-266.667 0 -400 150 -400 450v200zM700 880c-34 6.66699 -67.333 11.667 -100 15s-66 5 -100 5c-133.333 0 -200 -83.333 -200 -250v-200
c0 -166.667 66.667 -250 200 -250c34 0 67.333 1.66699 100 5s66 8.33301 100 15v660z" />
    <glyph glyph-name="r" unicode="r" horiz-adv-x="660" 
d="M100 1050c68.667 33.333 202 50 400 50c46 0 88 -4 126 -12l-45 -198c-22 6.66699 -49 10 -81 10c-34 0 -67.333 -1.66699 -100 -5s-66 -8.33301 -100 -15v-880h-200v1050z" />
    <glyph glyph-name="s" unicode="s" horiz-adv-x="954" 
d="M150 240c84.667 -26.667 201.333 -40 350 -40c133.333 0 200 40 200 120c0 66.667 -66.667 110 -200 130c-253.333 20 -380 130 -380 330c0 213.333 126.667 320 380 320c98 0 208 -16.667 330 -50l-50 -190c-84.667 26.667 -178 40 -280 40c-120 0 -180 -40 -180 -120
c0 -66.667 60 -110 180 -130c266.667 -20 400 -130 400 -330c0 -213.333 -133.333 -320 -400 -320c-144.667 0 -278 16.667 -400 50z" />
    <glyph glyph-name="t" unicode="t" horiz-adv-x="850" 
d="M250 1400l199.999 50v-350h300v-200h-300v-500c0 -133.333 50 -200 150 -200c46 0 92.667 10 140 30l50 -180c-47.333 -33.333 -110.666 -50 -189.999 -50c-233.333 -0 -350 133.333 -350 400v500h-150v200h150v300z" />
    <glyph glyph-name="u" unicode="u" 
d="M100 1100h200v-700c0 -133.333 66.667 -200 200 -200c34 0 67.333 1.66699 100 5s66 8.33301 100 15v880h200v-1000c-66.667 -66.667 -200 -100 -400 -100c-266.667 -0 -400 133.333 -400 400v700z" />
    <glyph glyph-name="v" unicode="v" horiz-adv-x="900" 
d="M0 1100h220l230 -850l230 850h220l-330 -1100h-240z" />
    <glyph glyph-name="w" unicode="w" horiz-adv-x="1400" 
d="M0 1100h220l160 -780l210 780h220l210 -780l160 780h220l-260 -1100h-230l-210 770l-210 -770h-230z" />
    <glyph glyph-name="x" unicode="x" horiz-adv-x="1100" 
d="M100 1100h230l220 -420l220 420h230l-300 -550l300 -550h-230l-220 420l-220 -420h-230l300 550z" />
    <glyph glyph-name="y" unicode="y" 
d="M100 1100h200v-650c0 -166.667 66.667 -250 200 -250c34 0 67.333 1.66699 100 5s66 8.33301 100 15v880h200v-1150c0 -266.667 -133.333 -400 -400 -400c-131.333 0 -248 16.667 -350 50l50 200c68.667 -33.333 168.667 -50 300 -50c133.333 0 200 66.667 200 200v80
c-67.333 -20 -134 -30 -200 -30c-266.667 0 -400 150 -400 450v650z" />
    <glyph glyph-name="z" unicode="z" horiz-adv-x="950" 
d="M120 1100h710v-200l-500 -700h520v-200h-750v200l500 700h-480v200z" />
    <glyph glyph-name="braceleft" unicode="{" horiz-adv-x="800" 
d="M300 1200c0 266.667 133.333 400.001 400 400.001v-200c-133.333 0 -200 -66.667 -200 -200v-300c0 -100.667 -50 -167.334 -150 -200.001c100 -33.333 150 -100 150 -200v-300c0 -133.333 66.667 -200 200 -200v-200c-266.667 0 -400 133.333 -400 400v300
c0 66.667 -66.667 100 -200 100v200c133.333 0 200 33.333 200 100v300z" />
    <glyph glyph-name="bar" unicode="|" horiz-adv-x="400" 
d="M100 1600h200v-1800h-200v1800z" />
    <glyph glyph-name="braceright" unicode="}" horiz-adv-x="800" 
d="M500 200c0 -266.667 -133.333 -400.001 -400 -400.001v200c133.333 0 200 66.667 200 200v300c0 100.667 50 167.334 150 200.001c-100 33.333 -150 100 -150 200v300c0 133.333 -66.667 200 -200 200v200c266.667 0 400 -133.333 400 -400v-300
c0 -66.667 66.667 -100 200 -100v-200c-133.333 0 -200 -33.333 -200 -100v-300z" />
    <glyph glyph-name="asciitilde" unicode="~" horiz-adv-x="1002" 
d="M100 550c0 200 88.667 300 266 300c38.667 0 87.667 -21.667 147 -65s108.666 -65 147.999 -65c60.667 0 96 43.333 106 130h135c0 -200 -88.667 -300 -266 -300c-39.333 0 -88.666 21.667 -147.999 65s-108.333 65 -147 65c-60.667 0 -96 -43.333 -106 -130h-135z" />
    <glyph glyph-name="uni00A0" unicode="&#xa0;" horiz-adv-x="600" 
 />
    <glyph glyph-name="exclamdown" unicode="&#xa1;" horiz-adv-x="450" 
d="M335.014 -296.83h-219.973l19.9971 999.878h189.978zM350.012 850.029h-249.969v249.97h249.969v-249.97z" />
    <glyph glyph-name="cent" unicode="&#xa2;" horiz-adv-x="950" 
d="M470 1400h149.999v-302c98.667 -5.33301 175.334 -21.333 230.001 -48l-50 -190c-25.333 9.33301 -52.833 17.166 -82.5 23.499s-62.167 10.833 -97.5 13.5v-695c34.667 2.66699 67 7 97 13s57.667 14.333 83 25l50 -190c-28 -13.333 -60.833 -24.166 -98.5 -32.499
s-81.5 -13.833 -131.5 -16.5v-301h-150v304c-246.667 28 -370 193.333 -370 496v100c0 302 123.333 467 370 495v305zM469.999 891c-113.333 -29.333 -170 -126.333 -170 -291v-100c0 -164.667 56.667 -261.667 170 -291v682z" />
    <glyph glyph-name="sterling" unicode="&#xa3;" horiz-adv-x="1100" 
d="M100 800h150.001v100c0 333.333 166.667 500 500 500c64.667 0 148 -16.667 250 -50l-50 -200c-68.667 33.333 -135.334 50 -200.001 50c-200 0 -300 -100 -300 -300v-100h400v-200h-400v-400h550v-200h-900v200h150v400h-150v200z" />
    <glyph glyph-name="yen" unicode="&#xa5;" horiz-adv-x="1200" 
d="M100 1400h230l270 -570l270 570h230l-325 -650h275v-180h-350v-140h350v-180h-350v-250h-200v250h-350v180h350v140h-350v180h275z" />
    <glyph glyph-name="brokenbar" unicode="&#xa6;" horiz-adv-x="400" 
d="M100 1600h200v-800h-200v800zM100 600h200v-800h-200v800z" />
    <glyph glyph-name="dieresis" unicode="&#xa8;" horiz-adv-x="800" 
d="M100 1500h200v-250h-200v250zM500 1500h200v-250h-200v250z" />
    <glyph glyph-name="copyright" unicode="&#xa9;" horiz-adv-x="1400" 
d="M1295 698c0 -165.333 -58.333 -306.333 -175 -423s-257.334 -175 -422.001 -175c-165.333 0 -306.333 58.333 -423 175s-175 257.667 -175 423c0 164.667 58.333 305.334 175 422.001s257.667 175 423 175c164.667 0 305.334 -58.333 422.001 -175
s175 -257.334 175 -422.001zM698 1155c-126 0 -233.667 -44.667 -323 -134s-134 -197 -134 -323s44.667 -233.667 134 -323s197 -134 323 -134s233.667 44.667 323 134s134 197 134 323s-44.667 233.667 -134 323s-197 134 -323 134zM860 767c-8 20 -20.667 38.333 -38 55
c-34 34.667 -75.333 52 -124 52s-90.167 -17.167 -124.5 -51.5s-51.5 -75.833 -51.5 -124.5s17.167 -90.167 51.5 -124.5s75.833 -51.5 124.5 -51.5s90 17 124 51c18.667 18.667 32 39 40 61h146c-12 -60.667 -41 -114 -87 -160c-61.333 -62 -135.666 -93 -222.999 -93
s-162 31 -224 93s-93 136.667 -93 224s31 161.833 93 223.5s136.667 92.5 224 92.5s161.666 -31 222.999 -93c45.333 -44.667 74 -96 86 -154h-147z" />
    <glyph glyph-name="guillemotleft" unicode="&#xab;" horiz-adv-x="1221" 
d="M427 1200h240l-327 -500l330 -504h-240l-330 504zM879 1200h240l-327 -500l329 -504h-240l-329 504z" />
    <glyph glyph-name="logicalnot" unicode="&#xac;" horiz-adv-x="900" 
d="M100 800h700v-500h-200v300h-500v200z" />
    <glyph glyph-name="registered" unicode="&#xae;" horiz-adv-x="1389" 
d="M1295 693c0 -165.333 -58.333 -306.333 -175 -423s-257.334 -175 -422.001 -175c-165.333 0 -306.333 58.333 -423 175s-175 257.667 -175 423c0 164.667 58.333 305.334 175 422.001s257.667 175 423 175c164.667 0 305.334 -58.333 422.001 -175
s175 -257.334 175 -422.001zM698 1150c-126 0 -233.667 -44.667 -323 -134s-134 -197 -134 -323s44.667 -233.667 134 -323s197 -134 323 -134s233.667 44.667 323 134s134 197 134 323s-44.667 233.667 -134 323s-197 134 -323 134zM748 1009
c140.667 0 211 -70.332 211 -210.999c0 -90.667 -32 -152.334 -96 -185.001l96 -237h-152l-82 211h-138v-211h-141v633h302zM748 728.001c46.667 0 70 23.333 70 70c0 47.333 -23.333 71 -70 71h-161v-141h161z" />
    <glyph glyph-name="macron" unicode="&#xaf;" horiz-adv-x="800" 
d="M100 1450h600v-200h-600v200z" />
    <glyph glyph-name="degree" unicode="&#xb0;" horiz-adv-x="700" 
d="M100 1150c0 34 6.5 66.167 19.5 96.5s30.833 56.833 53.5 79.5s49.167 40.667 79.5 54s62.833 20 97.5 20c34 0 66.167 -6.66699 96.5 -20s56.833 -31.333 79.5 -54s40.667 -49.167 54 -79.5s20 -62.5 20 -96.5c0 -34.667 -6.66699 -67.167 -20 -97.5
s-31.333 -56.833 -54 -79.5s-49.167 -40.5 -79.5 -53.5s-62.5 -19.5 -96.5 -19.5c-34.667 0 -67.167 6.5 -97.5 19.5s-56.833 30.833 -79.5 53.5s-40.5 49.167 -53.5 79.5s-19.5 62.833 -19.5 97.5zM350 1275c-17.333 0 -33.499 -3.33398 -48.499 -10.001
s-28 -15.667 -39 -27s-19.833 -24.666 -26.5 -39.999s-10 -31.333 -10 -48c0 -17.333 3.16699 -33.5 9.5 -48.5s15.166 -28.167 26.499 -39.5s24.5 -20.166 39.5 -26.499s31.167 -9.5 48.5 -9.5c16.667 0 32.667 3.33301 48 10s28.666 15.5 39.999 26.5s20.333 24 27 39
s10 31.167 10 48.5c0 16.667 -3.33301 32.667 -10 48s-15.667 28.666 -27 39.999s-24.666 20.333 -39.999 27s-31.333 10 -48 10z" />
    <glyph glyph-name="plusminus" unicode="&#xb1;" 
d="M100 1000h300v300h200v-300h300v-200h-300v-300h-200v300h-300v200zM100 300h800v-200h-800v200z" />
    <glyph glyph-name="acute" unicode="&#xb4;" horiz-adv-x="470" 
d="M150 1550h220l-120 -300h-150z" />
    <glyph glyph-name="mu" unicode="&#xb5;" 
d="M100 1100h200.001v-880c34 -6.66699 67.333 -11.667 100 -15s66 -5 100 -5c133.333 0 200 83.333 200 250v650h200v-650c0 -300 -133.333 -450 -400 -450c-66.667 0 -133.334 10 -200.001 30v-330l-200 -50v1450z" />
    <glyph glyph-name="paragraph" unicode="&#xb6;" horiz-adv-x="1300" 
d="M800 1200v-1550h-200v850c-333.333 0 -500 151.333 -500 454c0 297.333 166.667 446 500 446h600v-1750h-200v1550h-200z" />
    <glyph glyph-name="periodcentered" unicode="&#xb7;" horiz-adv-x="370" 
d="M100 795h170v-212h-170v212z" />
    <glyph glyph-name="cedilla" unicode="&#xb8;" horiz-adv-x="650" 
d="M230 40h99.999v-100c146.667 0 220 -56.667 220 -170s-73.333 -170 -220 -170c-75.333 0 -152 13.333 -230 40l30 90c66.667 -20 133.334 -30 200.001 -30c46.667 0 70 23.333 70 70s-23.333 70 -70 70h-100v200z" />
    <glyph glyph-name="guillemotright" unicode="&#xbb;" horiz-adv-x="1221" 
d="M103 1200h240l327 -500l-330 -504h-240l330 504zM554 1200h240l327 -500l-329 -504h-240l329 504z" />
    <glyph glyph-name="questiondown" unicode="&#xbf;" horiz-adv-x="950" 
d="M850.012 -255.835c-101.987 -33.3291 -201.975 -49.9941 -299.963 -49.9941c-299.964 0 -449.945 133.317 -449.945 399.951c0 199.976 99.9883 333.293 299.964 399.951l19.9971 199.976h159.98l19.998 -349.957c-199.976 -32.6631 -299.964 -115.986 -299.964 -249.97
c0 -133.317 83.3232 -199.976 249.97 -199.976c101.321 0 184.645 13.332 249.97 39.9951zM630.039 850.029h-249.97v249.97h249.97v-249.97z" />
    <glyph glyph-name="Agrave" unicode="&#xc0;" horiz-adv-x="1100" 
d="M430 1400h240l430 -1400h-220l-86 300h-488l-86 -300h-220zM550 1150l-187 -650h373zM370 1850h220l50 -300h-150z" />
    <glyph glyph-name="Aacute" unicode="&#xc1;" horiz-adv-x="1100" 
d="M430 1400h240l430 -1400h-220l-86 300h-488l-86 -300h-220zM550 1150l-187 -650h373zM510 1850h220l-120 -300h-150z" />
    <glyph glyph-name="Acircumflex" unicode="&#xc2;" horiz-adv-x="1100" 
d="M430 1400h240l430 -1400h-220l-86 300h-488l-86 -300h-220zM550 1150l-187 -650h373zM450 1850h200l200 -300h-200l-100 150l-100 -150h-200z" />
    <glyph glyph-name="Atilde" unicode="&#xc3;" horiz-adv-x="1100" 
d="M430 1400h240l430 -1400h-220l-86 300h-488l-86 -300h-220zM550 1150l-187 -650h373zM201 1570c0 174 70.334 261 211.001 261c78.667 0 136 -19 172 -57c35.333 -37.333 69.666 -56 102.999 -56c52 0 82.667 37.667 92 113h120c0 -174 -70.333 -261 -211 -261
c-79.333 0 -137 18.667 -173 56c-37.333 38 -71.333 57 -102 57c-52 0 -82.667 -37.667 -92 -113h-120z" />
    <glyph glyph-name="Adieresis" unicode="&#xc4;" horiz-adv-x="1100" 
d="M430 1400h240l430 -1400h-220l-86 300h-488l-86 -300h-220zM550 1150l-187 -650h373zM250 1800h200v-250h-200v250zM650 1800h200v-250h-200v250z" />
    <glyph glyph-name="Aring" unicode="&#xc5;" horiz-adv-x="1100" 
d="M430 1400h240l430 -1400h-220l-86 300h-488l-86 -300h-220zM550 1150l-187 -650h373zM350 1700c0 27.333 5.33398 53.165 16.001 77.498s25 45.5 43 63.5s39.167 32.333 63.5 43s50.166 16 77.499 16s53.166 -5.33301 77.499 -16s45.5 -25 63.5 -43
s32.333 -39.167 43 -63.5s16 -50.166 16 -77.499s-5.33301 -53.166 -16 -77.499s-25 -45.5 -43 -63.5s-39.167 -32.333 -63.5 -43s-50.166 -16 -77.499 -16c-28 0 -54.167 5.16699 -78.5 15.5s-45.5 24.5 -63.5 42.5s-32.167 39.167 -42.5 63.5s-15.5 50.5 -15.5 78.5z
M550.001 1780c-22 0 -40.667 -7.83301 -56 -23.5s-23 -34.5 -23 -56.5s7.66699 -40.667 23 -56s34 -23 56 -23s40.833 7.66699 56.5 23s23.5 34 23.5 56s-7.83301 40.833 -23.5 56.5s-34.5 23.5 -56.5 23.5z" />
    <glyph glyph-name="AE" unicode="&#xc6;" horiz-adv-x="1600" 
d="M400 1400h1100v-200h-550v-400h500v-200h-500v-400h550v-200h-750v300h-450l-80 -300h-220zM560 1200l-190 -700h380v700h-190z" />
    <glyph glyph-name="Ccedilla" unicode="&#xc7;" horiz-adv-x="1150" 
d="M985 1153c-86.667 31.333 -198.332 47 -334.999 47c-233.333 0 -350 -166.667 -350 -500s116.667 -500 350 -500c137.333 0 249.333 15.667 336 47l62 -176c-110.667 -46 -238.334 -69.667 -383.001 -71v-60c146.667 0 220 -56.667 220 -170s-73.333 -170 -220 -170
c-75.333 0 -152 13.333 -230 40l30 90c66.667 -20 133.334 -30 200.001 -30c46.667 0 70 23.333 70 70s-23.333 70 -70 70h-100v164c-310 34.667 -465 266.667 -465 696c0 466.667 183.333 700 550 700c151.333 0 284.666 -24 399.999 -72z" />
    <glyph glyph-name="Egrave" unicode="&#xc8;" 
d="M100 1400h800v-200h-600v-400h550v-200h-550v-400h600v-200h-800v1400zM320 1850h220l50 -300h-150z" />
    <glyph glyph-name="Eacute" unicode="&#xc9;" 
d="M100 1400h800v-200h-600v-400h550v-200h-550v-400h600v-200h-800v1400zM460 1850h220l-120 -300h-150z" />
    <glyph glyph-name="Ecircumflex" unicode="&#xca;" 
d="M100 1400h800v-200h-600v-400h550v-200h-550v-400h600v-200h-800v1400zM400 1850h200l200 -300h-200l-100 150l-100 -150h-200z" />
    <glyph glyph-name="Edieresis" unicode="&#xcb;" 
d="M100 1400h800v-200h-600v-400h550v-200h-550v-400h600v-200h-800v1400zM200 1800h200v-250h-200v250zM600 1800h200v-250h-200v250z" />
    <glyph glyph-name="Igrave" unicode="&#xcc;" horiz-adv-x="400" 
d="M100 1400h200v-1400h-200v1400zM22 1850h220l50 -300h-150z" />
    <glyph glyph-name="Iacute" unicode="&#xcd;" horiz-adv-x="400" 
d="M100 1400h200v-1400h-200v1400zM160 1850h220l-120 -300h-150z" />
    <glyph glyph-name="Icircumflex" unicode="&#xce;" horiz-adv-x="400" 
d="M100 1400h200v-1400h-200v1400zM102 1850h200l200 -300h-200l-100 150l-100 -150h-200z" />
    <glyph glyph-name="Idieresis" unicode="&#xcf;" horiz-adv-x="400" 
d="M100 1400h200v-1400h-200v1400zM-98 1800h200v-250h-200v250zM302 1800h200v-250h-200v250z" />
    <glyph glyph-name="Eth" unicode="&#xd0;" horiz-adv-x="1195" 
d="M95 1400h450c366.667 0 550 -233.333 550 -700s-183.333 -700 -550 -700h-450v625h-150v150h150v625zM295 1200v-425h150v-150h-150v-425h250c233.333 0 350 166.667 350 500s-116.667 500 -350 500h-250z" />
    <glyph glyph-name="Ntilde" unicode="&#xd1;" horiz-adv-x="1150" 
d="M100 1400h200l550 -990v990h200v-1400h-200l-550 990v-990h-200v1400zM226 1570c0 174 70.334 261 211.001 261c78.667 0 136 -19 172 -57c35.333 -37.333 69.666 -56 102.999 -56c52 0 82.667 37.667 92 113h120c0 -174 -70.333 -261 -211 -261
c-79.333 0 -137 18.667 -173 56c-37.333 38 -71.333 57 -102 57c-52 0 -82.667 -37.667 -92 -113h-120z" />
    <glyph glyph-name="Ograve" unicode="&#xd2;" horiz-adv-x="1300" 
d="M650 1200c-233.333 0 -350 -166.667 -350 -500s116.667 -500 350 -500s350 166.667 350 500s-116.667 500 -350 500zM100 700c0 466.667 183.333 700 550 700s550 -233.333 550 -700s-183.333 -700 -550 -700s-550 233.333 -550 700zM470 1850h220l50 -300h-150z" />
    <glyph glyph-name="Oacute" unicode="&#xd3;" horiz-adv-x="1300" 
d="M650 1200c-233.333 0 -350 -166.667 -350 -500s116.667 -500 350 -500s350 166.667 350 500s-116.667 500 -350 500zM100 700c0 466.667 183.333 700 550 700s550 -233.333 550 -700s-183.333 -700 -550 -700s-550 233.333 -550 700zM610 1850h220l-120 -300h-150z" />
    <glyph glyph-name="Ocircumflex" unicode="&#xd4;" horiz-adv-x="1300" 
d="M650 1200c-233.333 0 -350 -166.667 -350 -500s116.667 -500 350 -500s350 166.667 350 500s-116.667 500 -350 500zM100 700c0 466.667 183.333 700 550 700s550 -233.333 550 -700s-183.333 -700 -550 -700s-550 233.333 -550 700zM550 1850h200l200 -300h-200
l-100 150l-100 -150h-200z" />
    <glyph glyph-name="Otilde" unicode="&#xd5;" horiz-adv-x="1300" 
d="M650 1200c-233.333 0 -350 -166.667 -350 -500s116.667 -500 350 -500s350 166.667 350 500s-116.667 500 -350 500zM100 700c0 466.667 183.333 700 550 700s550 -233.333 550 -700s-183.333 -700 -550 -700s-550 233.333 -550 700zM301 1570
c0 174 70.334 261 211.001 261c78.667 0 136 -19 172 -57c35.333 -37.333 69.666 -56 102.999 -56c52 0 82.667 37.667 92 113h120c0 -174 -70.333 -261 -211 -261c-79.333 0 -137 18.667 -173 56c-37.333 38 -71.333 57 -102 57c-52 0 -82.667 -37.667 -92 -113h-120z" />
    <glyph glyph-name="Odieresis" unicode="&#xd6;" horiz-adv-x="1300" 
d="M650 1200c-233.333 0 -350 -166.667 -350 -500s116.667 -500 350 -500s350 166.667 350 500s-116.667 500 -350 500zM100 700c0 466.667 183.333 700 550 700s550 -233.333 550 -700s-183.333 -700 -550 -700s-550 233.333 -550 700zM350 1800h200v-250h-200v250z
M750 1800h200v-250h-200v250z" />
    <glyph glyph-name="multiply" unicode="&#xd7;" horiz-adv-x="981" 
d="M240 1087l250 -246l245 250l143 -141l-246 -249l249 -246l-140 -142l-249 246l-246 -250l-142 141l245 249l-249 246z" />
    <glyph glyph-name="Oslash" unicode="&#xd8;" horiz-adv-x="1300" 
d="M966 1546l136 -64l-94 -200c128 -113.333 192 -307.333 192 -582c0 -466.667 -183.333 -700 -550 -700c-86.667 0 -163 13 -229 39l-87 -185l-136 64l94 199c-128 112.667 -192 307 -192 583c0 466.667 183.333 700 550 700c86 0 162 -13 228 -39zM509 226
c42.667 -17.333 89.667 -26 141 -26c233.333 0 350 166.667 350 500c0 168 -29.667 293.667 -89 377zM790 1174c-42.667 17.333 -89.333 26 -140 26c-233.333 0 -350 -166.667 -350 -500c0 -168 29.667 -293.667 89 -377z" />
    <glyph glyph-name="Ugrave" unicode="&#xd9;" horiz-adv-x="1150" 
d="M100 1400h200v-900c0 -200 93.333 -300 280 -300c180 0 270 100 270 300v900h200v-900c0 -333.333 -156.667 -500 -470 -500c-320 0 -480 166.667 -480 500v900zM395 1850h220l50 -300h-150z" />
    <glyph glyph-name="Uacute" unicode="&#xda;" horiz-adv-x="1150" 
d="M100 1400h200v-900c0 -200 93.333 -300 280 -300c180 0 270 100 270 300v900h200v-900c0 -333.333 -156.667 -500 -470 -500c-320 0 -480 166.667 -480 500v900zM535 1850h220l-120 -300h-150z" />
    <glyph glyph-name="Ucircumflex" unicode="&#xdb;" horiz-adv-x="1150" 
d="M100 1400h200v-900c0 -200 93.333 -300 280 -300c180 0 270 100 270 300v900h200v-900c0 -333.333 -156.667 -500 -470 -500c-320 0 -480 166.667 -480 500v900zM475 1850h200l200 -300h-200l-100 150l-100 -150h-200z" />
    <glyph glyph-name="Udieresis" unicode="&#xdc;" horiz-adv-x="1150" 
d="M100 1400h200v-900c0 -200 93.333 -300 280 -300c180 0 270 100 270 300v900h200v-900c0 -333.333 -156.667 -500 -470 -500c-320 0 -480 166.667 -480 500v900zM275 1800h200v-250h-200v250zM675 1800h200v-250h-200v250z" />
    <glyph glyph-name="Yacute" unicode="&#xdd;" 
d="M0 1400h230l270 -570l270 570h230l-400 -800v-600h-200v600zM460 1850h220l-120 -300h-150z" />
    <glyph glyph-name="Thorn" unicode="&#xde;" horiz-adv-x="1150" 
d="M100 1400h200v-250h250c333.333 0 500 -150 500 -450s-166.667 -450 -500 -450h-250v-250h-200v1400zM300 950v-500h250c200 0 300 83.333 300 250s-100 250 -300 250h-250z" />
    <glyph glyph-name="germandbls" unicode="&#xdf;" horiz-adv-x="1100" 
d="M100 900c0 333.333 150 500 450 500s450 -133.333 450 -400c0 -166.667 -66.667 -266.667 -200 -300c133.333 -33.333 200 -133.333 200 -300c0 -266.667 -150 -400 -450 -400h-100v200h100c166.667 0 250 66.667 250 200s-83.333 200 -250 200h-100v200h100
c166.667 0 250 66.667 250 200s-83.333 200 -250 200s-250 -100 -250 -300v-900h-200v900z" />
    <glyph glyph-name="agrave" unicode="&#xe0;" 
d="M175 1034c108 44 216.333 66 325 66c266.667 0 400 -133.333 400 -400v-600c-66.667 -66.667 -200 -100 -400 -100c-266.667 -0 -400 113.333 -400 340c0 240 200 360 600 360c0 133.333 -66.667 200 -200 200c-89.333 0 -178.333 -15 -267 -45zM700 500
c-266.667 0 -400 -53.333 -400 -160c0 -93.333 66.667 -140 200 -140c34 0 67.333 1.66699 100 5s66 8.33301 100 15v280zM320 1550h220l50 -300h-150z" />
    <glyph glyph-name="aacute" unicode="&#xe1;" 
d="M175 1034c108 44 216.333 66 325 66c266.667 0 400 -133.333 400 -400v-600c-66.667 -66.667 -200 -100 -400 -100c-266.667 -0 -400 113.333 -400 340c0 240 200 360 600 360c0 133.333 -66.667 200 -200 200c-89.333 0 -178.333 -15 -267 -45zM700 500
c-266.667 0 -400 -53.333 -400 -160c0 -93.333 66.667 -140 200 -140c34 0 67.333 1.66699 100 5s66 8.33301 100 15v280zM460 1550h220l-120 -300h-150z" />
    <glyph glyph-name="acircumflex" unicode="&#xe2;" 
d="M175 1034c108 44 216.333 66 325 66c266.667 0 400 -133.333 400 -400v-600c-66.667 -66.667 -200 -100 -400 -100c-266.667 -0 -400 113.333 -400 340c0 240 200 360 600 360c0 133.333 -66.667 200 -200 200c-89.333 0 -178.333 -15 -267 -45zM700 500
c-266.667 0 -400 -53.333 -400 -160c0 -93.333 66.667 -140 200 -140c34 0 67.333 1.66699 100 5s66 8.33301 100 15v280zM400 1550h200l200 -300h-200l-100 150l-100 -150h-200z" />
    <glyph glyph-name="atilde" unicode="&#xe3;" 
d="M175 1034c108 44 216.333 66 325 66c266.667 0 400 -133.333 400 -400v-600c-66.667 -66.667 -200 -100 -400 -100c-266.667 -0 -400 113.333 -400 340c0 240 200 360 600 360c0 133.333 -66.667 200 -200 200c-89.333 0 -178.333 -15 -267 -45zM700 500
c-266.667 0 -400 -53.333 -400 -160c0 -93.333 66.667 -140 200 -140c34 0 67.333 1.66699 100 5s66 8.33301 100 15v280zM151 1270c0 174 70.334 261 211.001 261c78.667 0 136 -19 172 -57c35.333 -37.333 69.666 -56 102.999 -56c52 0 82.667 37.667 92 113h120
c0 -174 -70.333 -261 -211 -261c-79.333 0 -137 18.667 -173 56c-37.333 38 -71.333 57 -102 57c-52 0 -82.667 -37.667 -92 -113h-120z" />
    <glyph glyph-name="adieresis" unicode="&#xe4;" 
d="M175 1034c108 44 216.333 66 325 66c266.667 0 400 -133.333 400 -400v-600c-66.667 -66.667 -200 -100 -400 -100c-266.667 -0 -400 113.333 -400 340c0 240 200 360 600 360c0 133.333 -66.667 200 -200 200c-89.333 0 -178.333 -15 -267 -45zM700 500
c-266.667 0 -400 -53.333 -400 -160c0 -93.333 66.667 -140 200 -140c34 0 67.333 1.66699 100 5s66 8.33301 100 15v280zM200 1500h200v-250h-200v250zM600 1500h200v-250h-200v250z" />
    <glyph glyph-name="aring" unicode="&#xe5;" 
d="M175 1034c108 44 216.333 66 325 66c266.667 0 400 -133.333 400 -400v-600c-66.667 -66.667 -200 -100 -400 -100c-266.667 -0 -400 113.333 -400 340c0 240 200 360 600 360c0 133.333 -66.667 200 -200 200c-89.333 0 -178.333 -15 -267 -45zM700 500
c-266.667 0 -400 -53.333 -400 -160c0 -93.333 66.667 -140 200 -140c34 0 67.333 1.66699 100 5s66 8.33301 100 15v280zM300 1400c0 27.333 5.33398 53.165 16.001 77.498s25 45.5 43 63.5s39.167 32.333 63.5 43s50.166 16 77.499 16s53.166 -5.33301 77.499 -16
s45.5 -25 63.5 -43s32.333 -39.167 43 -63.5s16 -50.166 16 -77.499s-5.33301 -53.166 -16 -77.499s-25 -45.5 -43 -63.5s-39.167 -32.333 -63.5 -43s-50.166 -16 -77.499 -16c-28 0 -54.167 5.16699 -78.5 15.5s-45.5 24.5 -63.5 42.5s-32.167 39.167 -42.5 63.5
s-15.5 50.5 -15.5 78.5zM500.001 1480c-22 0 -40.667 -7.83301 -56 -23.5s-23 -34.5 -23 -56.5s7.66699 -40.667 23 -56s34 -23 56 -23s40.833 7.66699 56.5 23s23.5 34 23.5 56s-7.83301 40.833 -23.5 56.5s-34.5 23.5 -56.5 23.5z" />
    <glyph glyph-name="ae" unicode="&#xe6;" horiz-adv-x="1646" 
d="M175 1034c108 44 216.334 66 325.001 66c146 0 252 -40 318 -120c70.667 80 176.667 120 318 120c273.333 0 410 -166.667 410 -500c0 -100 -16.667 -150 -50 -150h-590c0 -166.667 66.667 -250 200 -250c131.333 0 236.333 14.667 315 44l38 -185
c-69.333 -39.333 -187 -59 -353 -59c-100 -0 -181.333 23.333 -244 70c-72.667 -46.667 -193.334 -70 -362.001 -70c-266.667 -0 -400 113.333 -400 340c0 240 200 360 600 360c0 133.333 -66.667 200 -200 200c-89.333 0 -178.333 -15 -267 -45zM700.001 500
c-266.667 0 -400 -53.333 -400 -160c0 -93.333 66.667 -140 200 -140c34 0 67.333 1.66699 100 5s66 8.33301 100 15v280zM1346 640c0 173.333 -70 260 -210 260c-153.333 0 -230 -86.667 -230 -260h440z" />
    <glyph glyph-name="ccedilla" unicode="&#xe7;" horiz-adv-x="950" 
d="M100 600c0 333.333 149.999 500 449.999 500c131.333 0 231.333 -16.667 300 -50l-50 -190c-65.333 26.667 -148.666 40 -249.999 40c-166.667 0 -250 -100 -250 -300v-100c0 -200 83.333 -300 250 -300c101.333 0 184.666 13.333 249.999 40l50 -190
c-32.667 -16.667 -72.667 -29 -120 -37s-102.333 -12.333 -165 -13v-60c146.667 0 220 -56.667 220 -170s-73.333 -170 -220 -170c-75.333 0 -152 13.333 -230 40l30 90c66.667 -20 133.334 -30 200.001 -30c46.667 0 70 23.333 70 70s-23.333 70 -70 70h-100v165
c-243.333 29.333 -365 194.333 -365 495v100z" />
    <glyph glyph-name="egrave" unicode="&#xe8;" 
d="M100 600c0 333.333 143.333 500 430 500c273.333 0 410 -166.667 410 -500c0 -100 -16.667 -150 -50 -150h-590c0 -166.667 66.667 -250 200 -250c131.333 0 236.333 14.667 315 44l38 -185c-69.333 -39.333 -187 -59 -353 -59c-266.667 0 -400 166.667 -400 500v100z
M740 640c0 173.333 -70 260 -210 260c-153.333 0 -230 -86.667 -230 -260h440zM340 1550h220l50 -300h-150z" />
    <glyph glyph-name="eacute" unicode="&#xe9;" 
d="M100 600c0 333.333 143.333 500 430 500c273.333 0 410 -166.667 410 -500c0 -100 -16.667 -150 -50 -150h-590c0 -166.667 66.667 -250 200 -250c131.333 0 236.333 14.667 315 44l38 -185c-69.333 -39.333 -187 -59 -353 -59c-266.667 0 -400 166.667 -400 500v100z
M740 640c0 173.333 -70 260 -210 260c-153.333 0 -230 -86.667 -230 -260h440zM480 1550h220l-120 -300h-150z" />
    <glyph glyph-name="ecircumflex" unicode="&#xea;" 
d="M100 600c0 333.333 143.333 500 430 500c273.333 0 410 -166.667 410 -500c0 -100 -16.667 -150 -50 -150h-590c0 -166.667 66.667 -250 200 -250c131.333 0 236.333 14.667 315 44l38 -185c-69.333 -39.333 -187 -59 -353 -59c-266.667 0 -400 166.667 -400 500v100z
M740 640c0 173.333 -70 260 -210 260c-153.333 0 -230 -86.667 -230 -260h440zM420 1550h200l200 -300h-200l-100 150l-100 -150h-200z" />
    <glyph glyph-name="edieresis" unicode="&#xeb;" 
d="M100 600c0 333.333 143.333 500 430 500c273.333 0 410 -166.667 410 -500c0 -100 -16.667 -150 -50 -150h-590c0 -166.667 66.667 -250 200 -250c131.333 0 236.333 14.667 315 44l38 -185c-69.333 -39.333 -187 -59 -353 -59c-266.667 0 -400 166.667 -400 500v100z
M740 640c0 173.333 -70 260 -210 260c-153.333 0 -230 -86.667 -230 -260h440zM220 1500h200v-250h-200v250zM620 1500h200v-250h-200v250z" />
    <glyph glyph-name="igrave" unicode="&#xec;" horiz-adv-x="400" 
d="M100 1100h200v-1100h-200v1100zM22 1550h220l50 -300h-150z" />
    <glyph glyph-name="iacute" unicode="&#xed;" horiz-adv-x="400" 
d="M100 1100h200v-1100h-200v1100zM160 1550h220l-120 -300h-150z" />
    <glyph glyph-name="icircumflex" unicode="&#xee;" horiz-adv-x="400" 
d="M100 1100h200v-1100h-200v1100zM102 1550h200l200 -300h-200l-100 150l-100 -150h-200z" />
    <glyph glyph-name="idieresis" unicode="&#xef;" horiz-adv-x="400" 
d="M100 1100h200v-1100h-200v1100zM-98 1500h200v-250h-200v250zM302 1500h200v-250h-200v250z" />
    <glyph glyph-name="eth" unicode="&#xf0;" 
d="M550 1320h150v80l200 50v-130h150v-150h-150v-1070c-66.667 -66.667 -200 -100 -400 -100c-266.667 0 -400 150 -400 450v200c0 300 133.333 450 400 450c66 0 132.667 -10 200 -30v100h-150v150zM700 880c-34 6.66699 -67.333 11.667 -100 15s-66 5 -100 5
c-133.333 0 -200 -83.333 -200 -250v-200c0 -166.667 66.667 -250 200 -250c34 0 67.333 1.66699 100 5s66 8.33301 100 15v660z" />
    <glyph glyph-name="ntilde" unicode="&#xf1;" 
d="M100 1050c68.667 33.333 202 50 400 50c266.667 0 400 -133.333 400 -400v-700h-200v700c0 133.333 -66.667 200 -200 200c-34 0 -67.333 -1.66699 -100 -5s-66 -8.33301 -100 -15v-880h-200v1050zM151 1270c0 174 70.334 261 211.001 261c78.667 0 136 -19 172 -57
c35.333 -37.333 69.666 -56 102.999 -56c52 0 82.667 37.667 92 113h120c0 -174 -70.333 -261 -211 -261c-79.333 0 -137 18.667 -173 56c-37.333 38 -71.333 57 -102 57c-52 0 -82.667 -37.667 -92 -113h-120z" />
    <glyph glyph-name="ograve" unicode="&#xf2;" horiz-adv-x="1100" 
d="M100 600c0 333.333 150 500 450 500s450 -166.667 450 -500v-100c0 -333.333 -150 -500 -450 -500s-450 166.667 -450 500v100zM300 500c0 -200 83.333 -300 250 -300s250 100 250 300v100c0 200 -83.333 300 -250 300s-250 -100 -250 -300v-100zM370 1550h220l50 -300
h-150z" />
    <glyph glyph-name="oacute" unicode="&#xf3;" horiz-adv-x="1100" 
d="M100 600c0 333.333 150 500 450 500s450 -166.667 450 -500v-100c0 -333.333 -150 -500 -450 -500s-450 166.667 -450 500v100zM300 500c0 -200 83.333 -300 250 -300s250 100 250 300v100c0 200 -83.333 300 -250 300s-250 -100 -250 -300v-100zM510 1550h220l-120 -300
h-150z" />
    <glyph glyph-name="ocircumflex" unicode="&#xf4;" horiz-adv-x="1100" 
d="M100 600c0 333.333 150 500 450 500s450 -166.667 450 -500v-100c0 -333.333 -150 -500 -450 -500s-450 166.667 -450 500v100zM300 500c0 -200 83.333 -300 250 -300s250 100 250 300v100c0 200 -83.333 300 -250 300s-250 -100 -250 -300v-100zM450 1550h200l200 -300
h-200l-100 150l-100 -150h-200z" />
    <glyph glyph-name="otilde" unicode="&#xf5;" horiz-adv-x="1100" 
d="M100 600c0 333.333 150 500 450 500s450 -166.667 450 -500v-100c0 -333.333 -150 -500 -450 -500s-450 166.667 -450 500v100zM300 500c0 -200 83.333 -300 250 -300s250 100 250 300v100c0 200 -83.333 300 -250 300s-250 -100 -250 -300v-100zM201 1270
c0 174 70.334 261 211.001 261c78.667 0 136 -19 172 -57c35.333 -37.333 69.666 -56 102.999 -56c52 0 82.667 37.667 92 113h120c0 -174 -70.333 -261 -211 -261c-79.333 0 -137 18.667 -173 56c-37.333 38 -71.333 57 -102 57c-52 0 -82.667 -37.667 -92 -113h-120z" />
    <glyph glyph-name="odieresis" unicode="&#xf6;" horiz-adv-x="1100" 
d="M100 600c0 333.333 150 500 450 500s450 -166.667 450 -500v-100c0 -333.333 -150 -500 -450 -500s-450 166.667 -450 500v100zM300 500c0 -200 83.333 -300 250 -300s250 100 250 300v100c0 200 -83.333 300 -250 300s-250 -100 -250 -300v-100zM250 1500h200v-250h-200
v250zM650 1500h200v-250h-200v250z" />
    <glyph glyph-name="divide" unicode="&#xf7;" 
d="M100 800h800v-200h-800v200zM400 400h200v-250h-200v250zM400 1250h200v-250h-200v250z" />
    <glyph glyph-name="oslash" unicode="&#xf8;" horiz-adv-x="1100" 
d="M811 1322l136 -64l-107 -239c106.667 -80.667 160 -220 160 -418v-100c0 -333.333 -150 -500 -450 -500c-57.333 0 -109 6 -155 18l-106 -239l-136 64l106 239c-106 80 -159 219.333 -159 418v100c0 333.333 150 500 450 500c56.667 0 108 -6 154 -18zM800 601
c0 92 -17.333 162.333 -52 211l-269 -604c19.333 -4.66699 43 -7 71 -7c166.667 0 250 100 250 300v100zM620 894c-10.667 2.66699 -21.832 4.5 -33.499 5.5s-23.834 1.5 -36.501 1.5c-166.667 0 -250 -100 -250 -300v-100c0 -92 17 -162.333 51 -211z" />
    <glyph glyph-name="ugrave" unicode="&#xf9;" 
d="M100 1100h200v-700c0 -133.333 66.667 -200 200 -200c34 0 67.333 1.66699 100 5s66 8.33301 100 15v880h200v-1000c-66.667 -66.667 -200 -100 -400 -100c-266.667 -0 -400 133.333 -400 400v700zM320 1550h220l50 -300h-150z" />
    <glyph glyph-name="uacute" unicode="&#xfa;" 
d="M100 1100h200v-700c0 -133.333 66.667 -200 200 -200c34 0 67.333 1.66699 100 5s66 8.33301 100 15v880h200v-1000c-66.667 -66.667 -200 -100 -400 -100c-266.667 -0 -400 133.333 -400 400v700zM460 1550h220l-120 -300h-150z" />
    <glyph glyph-name="ucircumflex" unicode="&#xfb;" 
d="M100 1100h200v-700c0 -133.333 66.667 -200 200 -200c34 0 67.333 1.66699 100 5s66 8.33301 100 15v880h200v-1000c-66.667 -66.667 -200 -100 -400 -100c-266.667 -0 -400 133.333 -400 400v700zM400 1550h200l200 -300h-200l-100 150l-100 -150h-200z" />
    <glyph glyph-name="udieresis" unicode="&#xfc;" 
d="M100 1100h200v-700c0 -133.333 66.667 -200 200 -200c34 0 67.333 1.66699 100 5s66 8.33301 100 15v880h200v-1000c-66.667 -66.667 -200 -100 -400 -100c-266.667 -0 -400 133.333 -400 400v700zM200 1500h200v-250h-200v250zM600 1500h200v-250h-200v250z" />
    <glyph glyph-name="yacute" unicode="&#xfd;" 
d="M100 1100h200v-650c0 -166.667 66.667 -250 200 -250c34 0 67.333 1.66699 100 5s66 8.33301 100 15v880h200v-1150c0 -266.667 -133.333 -400 -400 -400c-131.333 0 -248 16.667 -350 50l50 200c68.667 -33.333 168.667 -50 300 -50c133.333 0 200 66.667 200 200v80
c-67.333 -20 -134 -30 -200 -30c-266.667 0 -400 150 -400 450v650zM460 1550h220l-120 -300h-150z" />
    <glyph glyph-name="thorn" unicode="&#xfe;" 
d="M700 650c0 166.667 -66.667 250 -200 250c-34 0 -67.333 -1.66699 -100 -5s-66 -8.33301 -100 -15v-660c34 -6.66699 67.333 -11.667 100 -15s66 -5 100 -5c133.333 0 200 83.333 200 250v200zM100 1400l200 50v-380c66.667 20 133.334 30 200.001 30
c266.667 0 400 -133.333 400 -400v-300c0 -266.667 -133.333 -400 -400 -400c-66.667 0 -133.334 10 -200.001 30v-430l-200 -50v1850z" />
    <glyph glyph-name="ydieresis" unicode="&#xff;" 
d="M100 1100h200v-650c0 -166.667 66.667 -250 200 -250c34 0 67.333 1.66699 100 5s66 8.33301 100 15v880h200v-1150c0 -266.667 -133.333 -400 -400 -400c-131.333 0 -248 16.667 -350 50l50 200c68.667 -33.333 168.667 -50 300 -50c133.333 0 200 66.667 200 200v80
c-67.333 -20 -134 -30 -200 -30c-266.667 0 -400 150 -400 450v650zM200 1500h200v-250h-200v250zM600 1500h200v-250h-200v250z" />
    <glyph glyph-name="dotlessi" unicode="&#x131;" horiz-adv-x="400" 
d="M100 1100h200v-1100h-200v1100z" />
    <glyph glyph-name="OE" unicode="&#x152;" horiz-adv-x="1750" 
d="M900 1400h750v-200h-550v-400h500v-200h-500v-400h550v-200h-750v94c-76.667 -62.667 -176.334 -94 -299.001 -94c-334 -0 -501 233.333 -501 700s167 700 501 700c122.667 0 222.334 -31.333 299.001 -94v94zM900 779c-14.667 280.667 -114.333 421 -299 421
c-200.667 0 -301 -166.667 -301 -500s100.333 -500 301 -500c184 0 283.667 140 299 420v159z" />
    <glyph glyph-name="oe" unicode="&#x153;" horiz-adv-x="1740" 
d="M100 600c0 333.333 150 500 450 500c156 0 271.667 -45.667 347 -137c72 91.333 183 137 333 137c273.333 0 410 -166.667 410 -500c0 -100 -16.667 -150 -50 -150h-590c0 -166.667 66.667 -250 200 -250c131.333 0 236.333 14.667 315 44l38 -185
c-69.333 -39.333 -187 -59 -353 -59c-137.333 0 -239.333 44 -306 132c-75.333 -88 -190 -132 -344 -132c-300 0 -450 166.667 -450 500v100zM300 500c0 -200 83.333 -300 250 -300s250 100 250 300v100c0 200 -83.333 300 -250 300s-250 -100 -250 -300v-100zM1440 640
c0 173.333 -70 260 -210 260c-153.333 0 -230 -86.667 -230 -260h440z" />
    <glyph glyph-name="Scaron" unicode="&#x160;" horiz-adv-x="1077" 
d="M882 1154c-79.333 30.667 -170.999 45.998 -274.999 45.998c-186.667 0 -280 -66.667 -280 -200c0 -100 76.667 -166.667 230 -200c280 -33.333 420 -166.666 420 -399.999c0 -266.667 -156.667 -400 -470 -400c-166.667 0 -302.334 22 -407.001 66l52 192
c46 -15.333 98.333 -28 157 -38s124.667 -16.667 198 -20c180 0 270 66.667 270 200c0 100.667 -73.333 167.334 -220 200.001c-286.667 32.667 -430 166 -430 400c0 266.667 160 400 480 400c126.667 0 233.667 -20.333 321 -61zM239.001 1850h200l100 -150l100 150h200
l-200 -300h-200z" />
    <glyph glyph-name="scaron" unicode="&#x161;" horiz-adv-x="954" 
d="M150 240c84.667 -26.667 201.333 -40 350 -40c133.333 0 200 40 200 120c0 66.667 -66.667 110 -200 130c-253.333 20 -380 130 -380 330c0 213.333 126.667 320 380 320c98 0 208 -16.667 330 -50l-50 -190c-84.667 26.667 -178 40 -280 40c-120 0 -180 -40 -180 -120
c0 -66.667 60 -110 180 -130c266.667 -20 400 -130 400 -330c0 -213.333 -133.333 -320 -400 -320c-144.667 0 -278 16.667 -400 50zM199.999 1550h200l100 -150l100 150h200l-200 -300h-200z" />
    <glyph glyph-name="Ydieresis" unicode="&#x178;" 
d="M0 1400h230l270 -570l270 570h230l-400 -800v-600h-200v600zM200 1800h200v-250h-200v250zM600 1800h200v-250h-200v250z" />
    <glyph glyph-name="Zcaron" unicode="&#x17d;" horiz-adv-x="1100" 
d="M130 1400h840v-200l-620 -1000h650v-200h-900v200l620 1000h-590v200zM250 1850h200l100 -150l100 150h200l-200 -300h-200z" />
    <glyph glyph-name="zcaron" unicode="&#x17e;" horiz-adv-x="950" 
d="M120 1100h710v-200l-500 -700h520v-200h-750v200l500 700h-480v200zM175 1550h200l100 -150l100 150h200l-200 -300h-200z" />
    <glyph glyph-name="longs" unicode="&#x17f;" horiz-adv-x="695" 
d="M100 1050c0 266.667 116.668 400 350.001 400c79.333 0 142.666 -16.667 189.999 -50l-50 -180c-47.333 20 -94 30 -140 30c-100 0 -150 -66.667 -150 -200v-1050h-200v1050z" />
    <glyph glyph-name="florin" unicode="&#x192;" horiz-adv-x="736" 
d="M-54 1050h150.001c0 266.667 116.667 400 350 400c79.333 0 142.666 -16.667 189.999 -50l-50 -180c-47.333 20 -94 30 -140 30c-100 0 -150 -66.667 -150 -200h300v-200h-300v-900c0 -266.667 -133.333 -400 -400 -400h-50v200h50c133.333 0 200 66.667 200 200v900
h-150v200z" />
    <glyph glyph-name="uni0251" unicode="&#x251;" 
d="M900 50c-66.667 -33.333 -199.999 -50 -399.999 -50c-266.667 0 -400 150 -400 450v200c0 300 133.333 450 400 450c199.333 0 332.666 -10 399.999 -30v-1020zM700.001 880c-34 6.66699 -67.333 11.667 -100 15s-66 5 -100 5c-133.333 0 -200 -83.333 -200 -250v-200
c0 -166.667 66.667 -250 200 -250c34 0 67.333 1.66699 100 5s66 8.33301 100 15v660z" />
    <glyph glyph-name="circumflex" unicode="&#x2c6;" horiz-adv-x="800" 
d="M300 1550h200l200 -300h-200l-100 150l-100 -150h-200z" />
    <glyph glyph-name="caron" unicode="&#x2c7;" horiz-adv-x="800" 
d="M100 1550h200l100 -150l100 150h200l-200 -300h-200z" />
    <glyph glyph-name="uni02C9" unicode="&#x2c9;" horiz-adv-x="800" 
d="M100 1450h600v-200h-600v200z" />
    <glyph glyph-name="breve" unicode="&#x2d8;" horiz-adv-x="750" 
d="M250 1540c0 -86.667 40 -130 120 -130c86.667 0 130 43.333 130 130h150c0 -200 -93.333 -300 -280 -300c-180 0 -270 100 -270 300h150z" />
    <glyph glyph-name="dotaccent" unicode="&#x2d9;" horiz-adv-x="400" 
d="M100 1500h200v-250h-200v250z" />
    <glyph glyph-name="ring" unicode="&#x2da;" horiz-adv-x="600" 
d="M100 1400c0 27.333 5.33398 53.165 16.001 77.498s25 45.5 43 63.5s39.167 32.333 63.5 43s50.166 16 77.499 16s53.166 -5.33301 77.499 -16s45.5 -25 63.5 -43s32.333 -39.167 43 -63.5s16 -50.166 16 -77.499s-5.33301 -53.166 -16 -77.499s-25 -45.5 -43 -63.5
s-39.167 -32.333 -63.5 -43s-50.166 -16 -77.499 -16c-28 0 -54.167 5.16699 -78.5 15.5s-45.5 24.5 -63.5 42.5s-32.167 39.167 -42.5 63.5s-15.5 50.5 -15.5 78.5zM300.001 1480c-22 0 -40.667 -7.83301 -56 -23.5s-23 -34.5 -23 -56.5s7.66699 -40.667 23 -56
s34 -23 56 -23s40.833 7.66699 56.5 23s23.5 34 23.5 56s-7.83301 40.833 -23.5 56.5s-34.5 23.5 -56.5 23.5z" />
    <glyph glyph-name="ogonek" unicode="&#x2db;" horiz-adv-x="650" 
d="M350 0c-66.667 -72.667 -99.999 -136 -99.999 -190c0 -36 11.833 -61.667 35.5 -77s59.5 -23 107.5 -23c37.333 0 79.666 6.66699 126.999 20l30 -90c-73.333 -43.333 -145.333 -65 -216 -65c-78 0 -136.5 17.5 -175.5 52.5s-58.5 85.833 -58.5 152.5
c0 106.667 50 180 150 220h100z" />
    <glyph glyph-name="tilde" unicode="&#x2dc;" horiz-adv-x="898" 
d="M100 1270c0 174 70.334 261 211.001 261c78.667 0 136 -19 172 -57c35.333 -37.333 69.666 -56 102.999 -56c52 0 82.667 37.667 92 113h120c0 -174 -70.333 -261 -211 -261c-79.333 0 -137 18.667 -173 56c-37.333 38 -71.333 57 -102 57
c-52 0 -82.667 -37.667 -92 -113h-120z" />
    <glyph glyph-name="hungarumlaut" unicode="&#x2dd;" horiz-adv-x="770" 
d="M150 1550h220l-120 -300h-150zM450 1550h220l-120 -300h-150z" />
    <glyph glyph-name="uni1E9E" unicode="&#x1e9e;" horiz-adv-x="1100" 
d="M100 900c0 333.333 156.667 500 470 500c320 0 480 -133.333 480 -400c0 -166.667 -66.667 -266.667 -200 -300c133.333 -33.333 200 -133.333 200 -300c0 -266.667 -150 -400 -450 -400h-150v200h150c166.667 0 250 66.667 250 200s-83.333 200 -250 200h-150v200h150
c166.667 0 250 66.667 250 200s-93.333 200 -280 200c-180 0 -270 -100 -270 -300v-900h-200v900z" />
    <glyph glyph-name="endash" unicode="&#x2013;" horiz-adv-x="800" 
d="M100 800h600v-200h-600v200z" />
    <glyph glyph-name="emdash" unicode="&#x2014;" 
d="M100 800h800v-200h-800v200z" />
    <glyph glyph-name="quoteleft" unicode="&#x2018;" horiz-adv-x="400" 
d="M100 1250c0 100 50 166.667 150 200l50 -80c-66.667 -46.667 -100 -86.667 -100 -120h100v-250h-200v250z" />
    <glyph glyph-name="quoteright" unicode="&#x2019;" horiz-adv-x="400" 
d="M100 1450l200 0.000976562v-250c0 -100.667 -50 -167.334 -150 -200.001l-50 80c66.667 46.667 100 86.667 100 120h-100v250z" />
    <glyph glyph-name="quotesinglbase" unicode="&#x201a;" horiz-adv-x="400" 
d="M100 225l200 0.000976562v-250c0 -100.667 -50 -167.334 -150 -200.001l-50 80c66.667 46.667 100 86.667 100 120h-100v250z" />
    <glyph glyph-name="quotedblleft" unicode="&#x201c;" horiz-adv-x="700" 
d="M400 1250c0 100 50 166.667 150 200l50 -80c-66.667 -46.667 -100 -86.667 -100 -120h100v-250h-200v250zM100 1250c0 100 50 166.667 150 200l50 -80c-66.667 -46.667 -100 -86.667 -100 -120h100v-250h-200v250z" />
    <glyph glyph-name="quotedblright" unicode="&#x201d;" horiz-adv-x="700" 
d="M100 1450l200 0.000976562v-250c0 -100.667 -50 -167.334 -150 -200.001l-50 80c66.667 46.667 100 86.667 100 120h-100v250zM400 1450l200 0.000976562v-250c0 -100.667 -50 -167.334 -150 -200.001l-50 80c66.667 46.667 100 86.667 100 120h-100v250z" />
    <glyph glyph-name="quotedblbase" unicode="&#x201e;" horiz-adv-x="700" 
d="M100 225l200 0.000976562v-250c0 -100.667 -50 -167.334 -150 -200.001l-50 80c66.667 46.667 100 86.667 100 120h-100v250zM400 225.001l200 0.000976562v-250c0 -100.667 -50 -167.334 -150 -200.001l-50 80c66.667 46.667 100 86.667 100 120h-100v250z" />
    <glyph glyph-name="dagger" unicode="&#x2020;" 
d="M400 1600h200v-400h300v-200h-300v-1200h-200v1200h-300v200h300v400z" />
    <glyph glyph-name="daggerdbl" unicode="&#x2021;" 
d="M400 1600h200v-400h300v-200h-300v-600h300v-200h-300v-400h-200v400h-300v200h300v600h-300v200h300v400z" />
    <glyph glyph-name="bullet" unicode="&#x2022;" horiz-adv-x="500" 
d="M100 850h300v-300h-300v300z" />
    <glyph glyph-name="ellipsis" unicode="&#x2026;" horiz-adv-x="1100" 
d="M100 250h200v-250h-200v250zM450 250h200v-250h-200v250zM800 250h200v-250h-200v250z" />
    <glyph glyph-name="perthousand" unicode="&#x2030;" horiz-adv-x="2200" 
d="M1000 1400h200l-700 -1400h-200zM100 1100c0 40.667 8 79.334 24 116.001s37.5 68.5 64.5 95.5s58.667 48.5 95 64.5s75.166 24 116.499 24c40.667 0 79.334 -8 116.001 -24s68.5 -37.5 95.5 -64.5s48.5 -58.833 64.5 -95.5s24 -75.334 24 -116.001
c0 -41.333 -8 -80.166 -24 -116.499s-37.5 -68 -64.5 -95s-58.833 -48.5 -95.5 -64.5s-75.334 -24 -116.001 -24c-41.333 0 -80.166 8 -116.499 24s-68 37.5 -95 64.5s-48.5 58.667 -64.5 95s-24 75.166 -24 116.499zM400 1229c-18 0 -34.667 -3.5 -50 -10.5
s-28.833 -16.333 -40.5 -28s-20.834 -25.334 -27.501 -41.001s-10 -32.167 -10 -49.5c0 -18 3.33301 -34.667 10 -50s15.834 -28.833 27.501 -40.5s25.167 -20.834 40.5 -27.501s32 -10 50 -10c17.333 0 33.833 3.33301 49.5 10s29.334 15.834 41.001 27.501
s21 25.167 28 40.5s10.5 32 10.5 50c0 17.333 -3.5 33.833 -10.5 49.5s-16.333 29.334 -28 41.001s-25.334 21 -41.001 28s-32.167 10.5 -49.5 10.5zM800 300c0 40.667 8 79.334 24 116.001s37.5 68.5 64.5 95.5s58.667 48.5 95 64.5s75.166 24 116.499 24
c40.667 0 79.334 -8 116.001 -24s68.5 -37.5 95.5 -64.5s48.5 -58.833 64.5 -95.5s24 -75.334 24 -116.001c0 -41.333 -8 -80.166 -24 -116.499s-37.5 -68 -64.5 -95s-58.833 -48.5 -95.5 -64.5s-75.334 -24 -116.001 -24c-41.333 0 -80.166 8 -116.499 24
s-68 37.5 -95 64.5s-48.5 58.667 -64.5 95s-24 75.166 -24 116.499zM1100 429c-18 0 -34.667 -3.5 -50 -10.5s-28.833 -16.333 -40.5 -28s-20.834 -25.334 -27.501 -41.001s-10 -32.167 -10 -49.5c0 -18 3.33301 -34.667 10 -50s15.834 -28.833 27.501 -40.5
s25.167 -20.834 40.5 -27.501s32 -10 50 -10c17.333 0 33.833 3.33301 49.5 10s29.334 15.834 41.001 27.501s21 25.167 28 40.5s10.5 32 10.5 50c0 17.333 -3.5 33.833 -10.5 49.5s-16.333 29.334 -28 41.001s-25.334 21 -41.001 28s-32.167 10.5 -49.5 10.5zM1500 300
c0 40.667 8 79.334 24 116.001s37.5 68.5 64.5 95.5s58.667 48.5 95 64.5s75.166 24 116.499 24c40.667 0 79.334 -8 116.001 -24s68.5 -37.5 95.5 -64.5s48.5 -58.833 64.5 -95.5s24 -75.334 24 -116.001c0 -41.333 -8 -80.166 -24 -116.499s-37.5 -68 -64.5 -95
s-58.833 -48.5 -95.5 -64.5s-75.334 -24 -116.001 -24c-41.333 0 -80.166 8 -116.499 24s-68 37.5 -95 64.5s-48.5 58.667 -64.5 95s-24 75.166 -24 116.499zM1800 429c-18 0 -34.667 -3.5 -50 -10.5s-28.833 -16.333 -40.5 -28s-20.834 -25.334 -27.501 -41.001
s-10 -32.167 -10 -49.5c0 -18 3.33301 -34.667 10 -50s15.834 -28.833 27.501 -40.5s25.167 -20.834 40.5 -27.501s32 -10 50 -10c17.333 0 33.833 3.33301 49.5 10s29.334 15.834 41.001 27.501s21 25.167 28 40.5s10.5 32 10.5 50c0 17.333 -3.5 33.833 -10.5 49.5
s-16.333 29.334 -28 41.001s-25.334 21 -41.001 28s-32.167 10.5 -49.5 10.5z" />
    <glyph glyph-name="guilsinglleft" unicode="&#x2039;" horiz-adv-x="770" 
d="M427 1200h240l-327 -500l330 -504h-240l-330 504z" />
    <glyph glyph-name="guilsinglright" unicode="&#x203a;" horiz-adv-x="770" 
d="M103 1200h240l327 -500l-330 -504h-240l330 504z" />
    <glyph glyph-name="Euro" unicode="&#x20ac;" horiz-adv-x="1250" 
d="M100 950h121.003c58.667 300 235 450 529 450c151.333 0 284.666 -24 399.999 -72l-65 -175c-86.667 31.333 -198.334 47 -335.001 47c-165.333 0 -272 -83.333 -320 -250h470l-50 -150h-446c-1.33301 -15.333 -2.33301 -31.5 -3 -48.5s-1 -34.167 -1 -51.5
s0.333008 -34.5 1 -51.5s1.66699 -33.167 3 -48.5h446l-50 -150h-370c48 -166.667 154.667 -250 320 -250c137.333 0 249.333 15.667 336 47l62 -176c-116.667 -47.333 -249.334 -71 -398.001 -71c-294 0 -470.333 150 -529 450h-121v150h103c-2 32 -3 65.333 -3 100
s1 68 3 100h-103v150z" />
    <glyph glyph-name="trademark" unicode="&#x2122;" horiz-adv-x="1294" 
d="M100 1400h429v-126h-151v-463h-135v463h-143v126zM605 1400h210l84 -421l85 421h210v-589h-126v421l-84 -421h-169l-84 421v-421h-126v589z" />
  </font>
</defs>
</svg>
